<?xml version="1.0"?>
<svg xmlns="http://www.w3.org/2000/svg" viewBox="0 0 512 512" width="512" height="512"><g id="Outline"><path d="M486.4,292.8l-24.088-18.067-23.156-46.311-11.58-23.16A23.866,23.866,0,0,0,406.11,192H336V136a8,8,0,0,0-8-8H24a8,8,0,0,0-8,8v40H32V144H230.3l-12.577,16H80v16H214.581l17.9,22.769-27.21,13.337a8,8,0,0,0-4.29,8.91l6.537,29.593-30.3.211a8,8,0,0,0-7.732,6.165l-6.95,29.494-27.39-12.96a8,8,0,0,0-9.642,2.2L106.439,299.28,87.38,275.719a8,8,0,0,0-9.642-2.2l-27.39,12.96L43.4,256.985a8,8,0,0,0-7.731-6.165L32,250.8V192H16V392a8,8,0,0,0,8,8H48.581a55.992,55.992,0,0,0,110.838,0H344.581a56,56,0,1,0,0-16H336V208h70.11a7.955,7.955,0,0,1,7.155,4.417L419.056,224H376a8,8,0,0,0-8,8v48a8,8,0,0,0,8,8h77.333l23.47,17.6A8.032,8.032,0,0,1,480,312v8H460a12.013,12.013,0,0,0-12,12v24a12.013,12.013,0,0,0,12,12h20v16h-8v16h16a8,8,0,0,0,8-8V312A24.1,24.1,0,0,0,486.4,292.8ZM104,432a40,40,0,1,1,40-40A40.045,40.045,0,0,1,104,432ZM320,200V384H159.419a55.992,55.992,0,0,0-110.838,0H32V278.379l5.043,21.4a8,8,0,0,0,11.209,5.4l30.644-14.5,21.324,26.36a8,8,0,0,0,12.439,0l21.324-26.361,30.645,14.5a8,8,0,0,0,11.209-5.4l7.776-33,33.9-.236a8,8,0,0,0,7.755-9.726l-7.313-33.108L248.4,208.784a8,8,0,0,0,2.768-12.128L234.932,176H304V160H238.075l12.578-16H320Zm80,152a40,40,0,1,1-40,40A40.045,40.045,0,0,1,400,352Zm-16-80V240h43.056l16,32Zm96,80H464V336h16ZM104,368a24,24,0,1,0,24,24A24.027,24.027,0,0,0,104,368Zm0,32a8,8,0,1,1,8-8A8.009,8.009,0,0,1,104,400Zm296,16a24,24,0,1,0-24-24A24.027,24.027,0,0,0,400,416Zm0-32a8,8,0,1,1-8,8A8.009,8.009,0,0,1,400,384ZM168,352H304v16H168ZM64,176H48V160H64Zm136-64H88V96H200ZM328,432H232V416h96ZM216,416v16H200V416ZM144,80H48V64h96ZM32,80H16V64H32Z"/></g></svg>
