<svg id="_x33_0" enable-background="new 0 0 62 62" height="512" viewBox="0 0 62 62" width="512" xmlns="http://www.w3.org/2000/svg">
    <g>
        <path d="m16 20h-2c-1.103 0-2 .897-2 2v2c0 1.103.897 2 2 2h2c1.103 0 2-.897 2-2v-2c0-1.103-.897-2-2-2zm-2 4v-2h2l.001 2z"/>
        <path d="m24 20h-2c-1.103 0-2 .897-2 2v2c0 1.103.897 2 2 2h2c1.103 0 2-.897 2-2v-2c0-1.103-.897-2-2-2zm-2 4v-2h2l.001 2z"/>
        <path d="m32 20h-2c-1.103 0-2 .897-2 2v2c0 1.103.897 2 2 2h2c1.103 0 2-.897 2-2v-2c0-1.103-.897-2-2-2zm-2 4v-2h2l.001 2z"/>
        <path d="m42 22c0-1.103-.897-2-2-2h-2c-1.103 0-2 .897-2 2v2c0 1.103.897 2 2 2h2c1.103 0 2-.897 2-2zm-4 2v-2h2l.001 2z"/>
        <path d="m44.446 33.124 8.429-6.743c.715-.573 1.125-1.427 1.125-2.342v-.039c1.103 0 2-.897 2-2v-2c0-1.103-.897-2-2-2v-12c0-1.103-.897-2-2-2h-1.426c-.708 0-1.371.38-1.728.992l-6.42 11.008h-12.462c.022-.333.036-.667.036-1 0-8.271-6.729-15-15-15s-15 6.729-15 15c0 2.133.457 4.178 1.317 6.101-.319.5-.603 1.028-.842 1.585-.315.735-.475 1.514-.475 2.314s.16 1.579.475 2.313c1.741 4.062 5.721 6.687 10.141 6.687h7.298l3.2 2h-9.114c-1.103 0-2 .897-2 2v10h-4c-1.103 0-2 .897-2 2v10c0 1.103.897 2 2 2h10c.366 0 .705-.106 1-.278.295.172.634.278 1 .278h10c1.103 0 2-.897 2-2v-10c0-1.103-.897-2-2-2h-4v-10c0-.072-.014-.139-.021-.209l6.148 3.843c.384.239.826.366 1.279.366h4.18c1.331 0 2.414-1.083 2.414-2.414 0-.645-.251-1.251-.707-1.707l-3.879-3.879h8.534c.905 0 1.792-.311 2.498-.876zm-28.446 4.876h2v2h-2zm-4 12v2h-2v-2zm-6 10v-10h2v2c0 1.103.897 2 2 2h2c1.103 0 2-.897 2-2v-2h2v10zm22.001 0h-10.001v-10h2v2c0 1.103.897 2 2 2h2c1.103 0 2-.897 2-2v-2h2zm-6.001-10h2v2h-2zm-4-2h-2-4v-10h2v2c0 1.103.897 2 2 2h2c1.103 0 2-.897 2-2v-2h2l.001 10zm36.001-26h-8.001v-2h8zm-26.041-6h-5.988c.018-.334.028-.668.028-1 0-1.692-.244-3.374-.69-5h5.687c.644 1.54 1.003 3.229 1.003 5 0 .333-.014.667-.04 1zm-20.96 2.769v4.231c0 .551-.449 1-1 1h-3.852c.048-.177.092-.355.165-.525.924-2.156 2.624-3.804 4.687-4.706zm3.058-2.748c-.02-.341-.058-.682-.058-1.021 0-1.697.271-3.384.769-5h8.461c.499 1.616.77 3.303.77 5 0 .332-.036.666-.056 1h-9.329c-.186 0-.371.011-.557.021zm4.942-13.354 1.6 2.133c.745.993 1.366 2.071 1.875 3.2h-6.949c.509-1.128 1.13-2.207 1.875-3.2zm10.937 5.333h-5.294c-.619-1.563-1.431-3.051-2.443-4.4l-1.056-1.408c3.686.616 6.848 2.78 8.793 5.808zm-13.081-5.808-1.056 1.408c-1.012 1.349-1.824 2.837-2.443 4.4h-5.294c1.945-3.028 5.107-5.192 8.793-5.808zm-9.853 7.808h5.687c-.446 1.626-.69 3.308-.69 5 0 .434.02.87.05 1.305-2.029.484-3.87 1.529-5.315 3.005-.486-1.376-.735-2.819-.735-4.31 0-1.771.359-3.46 1.003-5zm32.997 29.586c0 .228-.186.414-.414.414h-4.18c-.078 0-.154-.022-.22-.063l-15.052-9.408c-.084-.052-.134-.143-.134-.242 0-.159.128-.287.287-.287h10.18c.076 0 .149.031.203.084l9.209 9.209c.077.077.121.184.121.293zm-7.916-10.916c-.426-.426-1.015-.67-1.617-.67h-10.18c-1.261 0-2.287 1.026-2.287 2.287 0 .673.301 1.283.798 1.713h-4.182c-3.618 0-6.877-2.149-8.303-5.476-.073-.17-.117-.347-.165-.524h3.852c1.654 0 3-1.346 3-3v-4.839c.528-.096 1.065-.161 1.616-.161h31.81c.708 0 1.371-.38 1.728-.992l6.42-11.008h1.426v12h-6c-1.103 0-2 .897-2 2v2c0 1.103.897 2 2 2h6v.039c0 .305-.137.59-.375.781l-8.428 6.742c-.353.282-.797.438-1.249.438h-10.534z"/>
        <path d="m56 26h6v2h-6z"/>
        <path d="m56 10h6v2h-6z"/>
        <path d="m58 14h4v2h-4z"/>
        <path d="m42 36h4v2h-4z"/>
        <path d="m48 36h8v2h-8z"/>
        <path d="m42 40h8v2h-8z"/>
        <path d="m38 12h4v2h-4z"/>
        <path d="m32 8h10v2h-10z"/>
    </g>
</svg>